<svg id="Layer_1" data-name="Layer 1" xmlns="http://www.w3.org/2000/svg" viewBox="0 0 20.93 17"><defs><style>.cls-1{fill:#06c;}</style></defs><path class="cls-1" d="M22.46,6A8.92,8.92,0,0,1,20,6.7a4.32,4.32,0,0,0,1.88-2.38,8.59,8.59,0,0,1-2.72,1A4.2,4.2,0,0,0,16,4a4.29,4.29,0,0,0-4.27,4.3,4.6,4.6,0,0,0,.11,1A12.23,12.23,0,0,1,3,4.8a4.28,4.28,0,0,0,1.32,5.71A4.28,4.28,0,0,1,2.37,10v0a4.27,4.27,0,0,0,3.44,4.2,4.33,4.33,0,0,1-1.13.15,4.26,4.26,0,0,1-.8-.08,4.28,4.28,0,0,0,4,3,8.5,8.5,0,0,1-5.33,1.84,8.72,8.72,0,0,1-1-.06A12.12,12.12,0,0,0,8.12,21,12.13,12.13,0,0,0,20.32,8.8c0-.2,0-.37,0-.56A8.57,8.57,0,0,0,22.45,6Z" transform="translate(-1.53 -4)"/></svg>