<svg id="Layer_1" data-name="Layer 1" xmlns="http://www.w3.org/2000/svg" viewBox="0 0 18 18"><defs><style>.cls-1{fill:#06c;}</style></defs><path class="cls-1" d="M19,3a2,2,0,0,1,2,2V19a2,2,0,0,1-2,2H5a2,2,0,0,1-2-2V5A2,2,0,0,1,5,3Zm-.5,15.5V13.2a3.26,3.26,0,0,0-3.26-3.26h0a2.9,2.9,0,0,0-2.32,1.3v-1.1h-2.8v8.37h2.8V13.58a1.4,1.4,0,1,1,2.8,0v4.93H18.5ZM6.88,8.56A1.68,1.68,0,0,0,8.56,6.88h0a1.69,1.69,0,1,0-3.37,0h0a1.69,1.69,0,0,0,1.7,1.68Zm1.4,9.94V10.13H5.5V18.5H8.28Z" transform="translate(-3 -3)"/></svg>