<svg id="Layer_1" data-name="Layer 1" xmlns="http://www.w3.org/2000/svg" xmlns:xlink="http://www.w3.org/1999/xlink" viewBox="0 0 87 120.94"><defs><style>.cls-1{fill:none;}.cls-2{clip-path:url(#clip-path);}.cls-3{fill:red;}.cls-4{fill:#778798;}.cls-5{fill:#fff;}</style><clipPath id="clip-path" transform="translate(-639.58 -323.04)"><rect class="cls-1" x="639.58" y="323.04" width="87" height="121"/></clipPath></defs><g class="cls-2"><path class="cls-3" d="M715.68,426.74h2.63v5.31h-2.63Zm-4.56,2.66-.14.06a11,11,0,0,1,.9.81c.06.06.09.06.06.21l-.12.29a7.45,7.45,0,0,0,.9-.21c.09,0,.14,0,.14.09s-.05,1-.05,1h.26s-.06-.9-.06-1,.06-.09.14-.09.9.21.9.21,0-.21-.08-.29,0-.15,0-.21l.9-.81-.14-.06c-.12-.06-.06-.09-.06-.15s.14-.55.14-.55-.4.12-.46.12-.09,0-.09-.06a1.23,1.23,0,0,0-.11-.27s-.47.5-.49.56-.21,0-.15-.12.26-1.16.26-1.16l-.35.2c-.08.06-.14.06-.14-.06s-.35-.67-.35-.7-.29.61-.35.7-.08.09-.14.06l-.35-.2s.26,1.07.26,1.16-.06.15-.14.12l-.5-.56-.08.21c0,.06-.06.12-.12.06s-.49-.09-.49-.09a2.89,2.89,0,0,0,.2.55C711.21,429.25,711.21,429.37,711.12,429.4Zm-3.39-2.66h2.64v5.31h-2.64Z" transform="translate(-639.58 -323.04)"/><path d="M718.89,442.64a1,1,0,0,1-.87.61c-.29,0-1.21-.06-1.21-2.45v-5.16c0-1.58-1.22-2.86-4.35-2.86-3.39,0-3.45,1.69-3.45,2.1s.2,1,1.07,1,1-.87,1.07-1.16.15-1.37,1.51-1.37c1.16,0,1.89,1,1.91,2.5v.88a1.16,1.16,0,0,1-.81,1,16.32,16.32,0,0,1-2.58.61c-.69.15-2.69.67-2.64,2.75s2.09,2.74,3.51,2.71a4,4,0,0,0,2.52-.91c.21-.14.21-.14.35.06a3.14,3.14,0,0,0,2.44.88c1.62,0,1.82-.76,1.91-1S719,442.41,718.89,442.64Zm-6.32.58a1.69,1.69,0,0,1-1.76-1.78,3,3,0,0,1,1.71-2.53,13.4,13.4,0,0,1,1.91-.91h.09s.05.06.05.09v2.24C714.6,442,713.79,443.22,712.57,443.22Zm-4.66-.06c-.21-.05-1.48.09-1.48-3.76V427.21c0-.14,0-.55-.47-.55s-3.5.14-3.71.2-.34.26,0,.26,2,.15,2,2.86v3.71c0,.11,0,.14-.06.2V434c-.06.06-.09,0-.26-.09a5.42,5.42,0,1,0-2.73,10.06,5.39,5.39,0,0,0,2.7-.81c.4-.27.35-.21.4.14s0,.76.7.7,2.58-.29,2.93-.35S708.23,443.22,707.91,443.16Zm-6.29.15c-2.24,0-3.4-2.65-3.4-5.19,0-2.8,1.57-4.7,3.25-4.58,2.18.15,2.73,1.9,2.78,5v.67C704.23,442.23,703,443.31,701.62,443.31Zm-5.92-.67a1,1,0,0,1-.87.61c-.29,0-1.22-.06-1.22-2.45v-5.16c0-1.58-1.21-2.86-4.34-2.86-3.4,0-3.45,1.69-3.45,2.1s.2,1,1.07,1,1-.87,1.07-1.16a1.4,1.4,0,0,1,1.51-1.37c1.16,0,1.91,1,1.91,2.53v.53a1.28,1.28,0,0,1-.87,1.31,17.52,17.52,0,0,1-2.58.61c-.69.15-2.69.67-2.64,2.74s2.09,2.75,3.51,2.72a4.08,4.08,0,0,0,2.52-.91c.21-.14.21-.14.35.06a3.14,3.14,0,0,0,2.44.88c1.62,0,1.82-.76,1.91-1S695.85,442.41,695.7,442.64Zm-6.29.58a1.7,1.7,0,0,1-1.77-1.78,3,3,0,0,1,1.71-2.53,14,14,0,0,1,1.92-.91h.08v2.39C691.41,442,690.6,443.22,689.41,443.22Zm-4.84-.06c-.41-.11-1.1-.55-1.1-2.8v-4.08c0-1,.09-3.47-3.71-3.47a5,5,0,0,0-3.19,1.08c-.15.15-.26.2-.29-.06s-.15-.49-.2-.7-.15-.29-.5-.26-2.58.41-3,.49-.26.27,0,.3,1.48.14,1.48,2.24v4.38c0,2.53-.5,2.74-1,2.91s-.29.35-.06.35h4.61c.29,0,.46-.29-.14-.41s-1.16-.46-1.16-2.45v-2.8c0-1.07-.27-4.34,2.69-4.37,2.09-.06,2.29,1.69,2.29,2.8v4.35c0,1.77-.49,2.33-1.1,2.45s-.46.35-.14.35h4.69C685,443.57,685.21,443.31,684.57,443.16Zm-12.32-.52a1,1,0,0,1-.87.61c-.29,0-1.22-.06-1.22-2.45v-5.16c0-1.58-1.22-2.86-4.35-2.86-3.39,0-3.45,1.69-3.45,2.1s.21,1,1.08,1,.95-.87,1.07-1.16a1.39,1.39,0,0,1,1.51-1.37c1.16,0,1.88,1,1.91,2.5v.56a.38.38,0,0,1-.06.26v.06a1.19,1.19,0,0,1-.81,1,16.58,16.58,0,0,1-2.58.61c-.7.15-2.7.67-2.64,2.75s2.09,2.74,3.51,2.71a4.08,4.08,0,0,0,2.52-.91c.2-.14.2-.14.35.06a3.11,3.11,0,0,0,2.43.88c1.63,0,1.83-.76,1.92-1S672.36,442.41,672.25,442.64Zm-6.32.58a1.7,1.7,0,0,1-1.77-1.78,3,3,0,0,1,1.71-2.53,14.16,14.16,0,0,1,1.91-.91h.09s.06.06.06.09v2.3C668,442,667.15,443.22,665.93,443.22Zm-4.87-4.43c-.49,1.63-1.48,4.29-5,4.37-3.65.06-5.83-2.45-5.91-7.08-.15-5,2-8.72,5.27-8.81,3.71-.06,5,4.37,5.08,5a.35.35,0,1,0,.69-.05c0-.27-.29-4.64-.4-5.17s-.5-.29-.61-.11a3.15,3.15,0,0,0-.15.29c-.2.44-.75.2-1,.15a7.49,7.49,0,0,0-3.66-.82,8.64,8.64,0,0,0-8.61,8.92,8.39,8.39,0,0,0,8.5,8.46,6.28,6.28,0,0,0,6.38-5.1C661.93,438.26,661.26,438.12,661.06,438.79Z" transform="translate(-639.58 -323.04)"/><path class="cls-4" d="M683.9,337.15a1,1,0,0,1-1.68,0l-7.07-12.62A1,1,0,0,1,676,323h14.18a1,1,0,0,1,.84,1.49Z" transform="translate(-639.58 -323.04)"/><path class="cls-4" d="M682.22,398.22a1,1,0,0,1,1.68,0L691,410.85a1,1,0,0,1-.84,1.49H676a1,1,0,0,1-.84-1.49Z" transform="translate(-639.58 -323.04)"/><path class="cls-4" d="M704.69,346.69a1,1,0,0,1-1.19-1.22l3.68-14.09a1,1,0,0,1,1.63-.44l10,10.3a1,1,0,0,1-.44,1.66Z" transform="translate(-639.58 -323.04)"/><path class="cls-4" d="M661.46,388.69a1,1,0,0,1,1.19,1.22L659,404a1,1,0,0,1-1.62.43l-10-10.29a1,1,0,0,1,.43-1.66Z" transform="translate(-639.58 -323.04)"/><path class="cls-4" d="M712.84,368.56a1,1,0,0,1,0-1.72l12.29-7.29a1,1,0,0,1,1.45.85V375a1,1,0,0,1-1.45.84Z" transform="translate(-639.58 -323.04)"/><path class="cls-4" d="M653.32,366.81a1,1,0,0,1,0,1.72L641,375.82a1,1,0,0,1-1.45-.84V360.4a1,1,0,0,1,1.45-.85Z" transform="translate(-639.58 -323.04)"/><path class="cls-4" d="M703.53,389.91a1,1,0,0,1,1.19-1.22l13.71,3.76a1,1,0,0,1,.44,1.66l-10,10.3a1,1,0,0,1-1.62-.44Z" transform="translate(-639.58 -323.04)"/><path class="cls-4" d="M662.62,345.47a1,1,0,0,1-1.18,1.22l-13.72-3.76a1,1,0,0,1-.43-1.66l10-10.3a1,1,0,0,1,1.62.44Z" transform="translate(-639.58 -323.04)"/><path class="cls-3" d="M671,343.72a5.75,5.75,0,0,1,4.09-1.75H691a5.7,5.7,0,0,1,4.09,1.75l11.28,11.57a6,6,0,0,1,1.71,4.2v16.39a6,6,0,0,1-1.71,4.2l-11.28,11.58a5.75,5.75,0,0,1-4.09,1.75H675.09a5.72,5.72,0,0,1-4.09-1.75l-11.27-11.58a5.92,5.92,0,0,1-1.72-4.2V359.49a5.94,5.94,0,0,1,1.72-4.2Z" transform="translate(-639.58 -323.04)"/><path class="cls-5" d="M684.11,386.82l-.29-8.46c0-.81.63-.81,2.08-.52l6.64,1.34-.87-2.22c-.29-.87-.35-1.4.29-2l7.86-6.59-1.45-.88c-.44-.29-.44-.67-.2-1.4l1.45-4.9-3.83.82c-1.07.23-1.36,0-1.6-.58l-1.07-2.22-3.74,4.38c-.64.81-1.59.29-1.3-.91l1.8-9-2.76,1.63c-.43.3-.93.38-1.16-.14l-3-6.07-3,6.07c-.29.52-.73.44-1.16.14l-2.76-1.63,1.8,9c.29,1.2-.64,1.69-1.3.91l-3.71-4.38-1.08,2.22c-.29.58-.58.9-1.59.58l-3.83-.82,1.45,4.9c.2.73.2,1.11-.2,1.4l-1.45.88,7.86,6.59a1.63,1.63,0,0,1,.29,2l-.87,2.22,6.63-1.34c1.45-.29,2.09-.29,2.09.52l-.29,8.46Z" transform="translate(-639.58 -323.04)"/></g><g class="cls-2"><path class="cls-3" d="M715.68,426.74h2.63v5.31h-2.63Zm-4.56,2.66-.14.06a11,11,0,0,1,.9.81c.06.06.09.06.06.21l-.12.29a7.45,7.45,0,0,0,.9-.21c.09,0,.14,0,.14.09s-.05,1-.05,1h.26s-.06-.9-.06-1,.06-.09.14-.09.9.21.9.21,0-.21-.08-.29,0-.15,0-.21l.9-.81-.14-.06c-.12-.06-.06-.09-.06-.15s.14-.55.14-.55-.4.12-.46.12-.09,0-.09-.06a1.23,1.23,0,0,0-.11-.27s-.47.5-.49.56-.21,0-.15-.12.26-1.16.26-1.16l-.35.2c-.08.06-.14.06-.14-.06s-.35-.67-.35-.7-.29.61-.35.7-.08.09-.14.06l-.35-.2s.26,1.07.26,1.16-.06.15-.14.12l-.5-.56-.08.21c0,.06-.06.12-.12.06s-.49-.09-.49-.09a2.89,2.89,0,0,0,.2.55C711.21,429.25,711.21,429.37,711.12,429.4Zm-3.39-2.66h2.64v5.31h-2.64Z" transform="translate(-639.58 -323.04)"/><path d="M718.89,442.64a1,1,0,0,1-.87.61c-.29,0-1.21-.06-1.21-2.45v-5.16c0-1.58-1.22-2.86-4.35-2.86-3.39,0-3.45,1.69-3.45,2.1s.2,1,1.07,1,1-.87,1.07-1.16.15-1.37,1.51-1.37c1.16,0,1.89,1,1.91,2.5v.88a1.16,1.16,0,0,1-.81,1,16.32,16.32,0,0,1-2.58.61c-.69.15-2.69.67-2.64,2.75s2.09,2.74,3.51,2.71a4,4,0,0,0,2.52-.91c.21-.14.21-.14.35.06a3.14,3.14,0,0,0,2.44.88c1.62,0,1.82-.76,1.91-1S719,442.41,718.89,442.64Zm-6.32.58a1.69,1.69,0,0,1-1.76-1.78,3,3,0,0,1,1.71-2.53,13.4,13.4,0,0,1,1.91-.91h.09s.05.06.05.09v2.24C714.6,442,713.79,443.22,712.57,443.22Zm-4.66-.06c-.21-.05-1.48.09-1.48-3.76V427.21c0-.14,0-.55-.47-.55s-3.5.14-3.71.2-.34.26,0,.26,2,.15,2,2.86v3.71c0,.11,0,.14-.06.2V434c-.06.06-.09,0-.26-.09a5.42,5.42,0,1,0-2.73,10.06,5.39,5.39,0,0,0,2.7-.81c.4-.27.35-.21.4.14s0,.76.7.7,2.58-.29,2.93-.35S708.23,443.22,707.91,443.16Zm-6.29.15c-2.24,0-3.4-2.65-3.4-5.19,0-2.8,1.57-4.7,3.25-4.58,2.18.15,2.73,1.9,2.78,5v.67C704.23,442.23,703,443.31,701.62,443.31Zm-5.92-.67a1,1,0,0,1-.87.61c-.29,0-1.22-.06-1.22-2.45v-5.16c0-1.58-1.21-2.86-4.34-2.86-3.4,0-3.45,1.69-3.45,2.1s.2,1,1.07,1,1-.87,1.07-1.16a1.4,1.4,0,0,1,1.51-1.37c1.16,0,1.91,1,1.91,2.53v.53a1.28,1.28,0,0,1-.87,1.31,17.52,17.52,0,0,1-2.58.61c-.69.15-2.69.67-2.64,2.74s2.09,2.75,3.51,2.72a4.08,4.08,0,0,0,2.52-.91c.21-.14.21-.14.35.06a3.14,3.14,0,0,0,2.44.88c1.62,0,1.82-.76,1.91-1S695.85,442.41,695.7,442.64Zm-6.29.58a1.7,1.7,0,0,1-1.77-1.78,3,3,0,0,1,1.71-2.53,14,14,0,0,1,1.92-.91h.08v2.39C691.41,442,690.6,443.22,689.41,443.22Zm-4.84-.06c-.41-.11-1.1-.55-1.1-2.8v-4.08c0-1,.09-3.47-3.71-3.47a5,5,0,0,0-3.19,1.08c-.15.15-.26.2-.29-.06s-.15-.49-.2-.7-.15-.29-.5-.26-2.58.41-3,.49-.26.27,0,.3,1.48.14,1.48,2.24v4.38c0,2.53-.5,2.74-1,2.91s-.29.35-.06.35h4.61c.29,0,.46-.29-.14-.41s-1.16-.46-1.16-2.45v-2.8c0-1.07-.27-4.34,2.69-4.37,2.09-.06,2.29,1.69,2.29,2.8v4.35c0,1.77-.49,2.33-1.1,2.45s-.46.35-.14.35h4.69C685,443.57,685.21,443.31,684.57,443.16Zm-12.32-.52a1,1,0,0,1-.87.61c-.29,0-1.22-.06-1.22-2.45v-5.16c0-1.58-1.22-2.86-4.35-2.86-3.39,0-3.45,1.69-3.45,2.1s.21,1,1.08,1,.95-.87,1.07-1.16a1.39,1.39,0,0,1,1.51-1.37c1.16,0,1.88,1,1.91,2.5v.56a.38.38,0,0,1-.06.26v.06a1.19,1.19,0,0,1-.81,1,16.58,16.58,0,0,1-2.58.61c-.7.15-2.7.67-2.64,2.75s2.09,2.74,3.51,2.71a4.08,4.08,0,0,0,2.52-.91c.2-.14.2-.14.35.06a3.11,3.11,0,0,0,2.43.88c1.63,0,1.83-.76,1.92-1S672.36,442.41,672.25,442.64Zm-6.32.58a1.7,1.7,0,0,1-1.77-1.78,3,3,0,0,1,1.71-2.53,14.16,14.16,0,0,1,1.91-.91h.09s.06.06.06.09v2.3C668,442,667.15,443.22,665.93,443.22Zm-4.87-4.43c-.49,1.63-1.48,4.29-5,4.37-3.65.06-5.83-2.45-5.91-7.08-.15-5,2-8.72,5.27-8.81,3.71-.06,5,4.37,5.08,5a.35.35,0,1,0,.69-.05c0-.27-.29-4.64-.4-5.17s-.5-.29-.61-.11a3.15,3.15,0,0,0-.15.29c-.2.44-.75.2-1,.15a7.49,7.49,0,0,0-3.66-.82,8.64,8.64,0,0,0-8.61,8.92,8.39,8.39,0,0,0,8.5,8.46,6.28,6.28,0,0,0,6.38-5.1C661.93,438.26,661.26,438.12,661.06,438.79Z" transform="translate(-639.58 -323.04)"/><path class="cls-4" d="M683.9,337.15a1,1,0,0,1-1.68,0l-7.07-12.62A1,1,0,0,1,676,323h14.18a1,1,0,0,1,.84,1.49Z" transform="translate(-639.58 -323.04)"/><path class="cls-4" d="M682.22,398.22a1,1,0,0,1,1.68,0L691,410.85a1,1,0,0,1-.84,1.49H676a1,1,0,0,1-.84-1.49Z" transform="translate(-639.58 -323.04)"/><path class="cls-4" d="M704.69,346.69a1,1,0,0,1-1.19-1.22l3.68-14.09a1,1,0,0,1,1.63-.44l10,10.3a1,1,0,0,1-.44,1.66Z" transform="translate(-639.58 -323.04)"/><path class="cls-4" d="M661.46,388.69a1,1,0,0,1,1.19,1.22L659,404a1,1,0,0,1-1.62.43l-10-10.29a1,1,0,0,1,.43-1.66Z" transform="translate(-639.58 -323.04)"/><path class="cls-4" d="M712.84,368.56a1,1,0,0,1,0-1.72l12.29-7.29a1,1,0,0,1,1.45.85V375a1,1,0,0,1-1.45.84Z" transform="translate(-639.58 -323.04)"/><path class="cls-4" d="M653.32,366.81a1,1,0,0,1,0,1.72L641,375.82a1,1,0,0,1-1.45-.84V360.4a1,1,0,0,1,1.45-.85Z" transform="translate(-639.58 -323.04)"/><path class="cls-4" d="M703.53,389.91a1,1,0,0,1,1.19-1.22l13.71,3.76a1,1,0,0,1,.44,1.66l-10,10.3a1,1,0,0,1-1.62-.44Z" transform="translate(-639.58 -323.04)"/><path class="cls-4" d="M662.62,345.47a1,1,0,0,1-1.18,1.22l-13.72-3.76a1,1,0,0,1-.43-1.66l10-10.3a1,1,0,0,1,1.62.44Z" transform="translate(-639.58 -323.04)"/><path class="cls-3" d="M671,343.72a5.75,5.75,0,0,1,4.09-1.75H691a5.7,5.7,0,0,1,4.09,1.75l11.28,11.57a6,6,0,0,1,1.71,4.2v16.39a6,6,0,0,1-1.71,4.2l-11.28,11.58a5.75,5.75,0,0,1-4.09,1.75H675.09a5.72,5.72,0,0,1-4.09-1.75l-11.27-11.58a5.92,5.92,0,0,1-1.72-4.2V359.49a5.94,5.94,0,0,1,1.72-4.2Z" transform="translate(-639.58 -323.04)"/><path class="cls-5" d="M684.11,386.82l-.29-8.46c0-.81.63-.81,2.08-.52l6.64,1.34-.87-2.22c-.29-.87-.35-1.4.29-2l7.86-6.59-1.45-.88c-.44-.29-.44-.67-.2-1.4l1.45-4.9-3.83.82c-1.07.23-1.36,0-1.6-.58l-1.07-2.22-3.74,4.38c-.64.81-1.59.29-1.3-.91l1.8-9-2.76,1.63c-.43.3-.93.38-1.16-.14l-3-6.07-3,6.07c-.29.52-.73.44-1.16.14l-2.76-1.63,1.8,9c.29,1.2-.64,1.69-1.3.91l-3.71-4.38-1.08,2.22c-.29.58-.58.9-1.59.58l-3.83-.82,1.45,4.9c.2.73.2,1.11-.2,1.4l-1.45.88,7.86,6.59a1.63,1.63,0,0,1,.29,2l-.87,2.22,6.63-1.34c1.45-.29,2.09-.29,2.09.52l-.29,8.46Z" transform="translate(-639.58 -323.04)"/></g></svg>