<svg width="400" height="466" viewBox="0 0 400 466" fill="none" xmlns="http://www.w3.org/2000/svg">
<path d="M312.485 406.738H321.568V424.914H312.485V406.738ZM296.763 415.826L296.239 416.001C296.239 416.001 299.383 418.622 299.383 418.797C299.558 418.972 299.732 418.972 299.558 419.496C299.383 420.02 299.208 420.545 299.208 420.545C299.208 420.545 302.003 420.02 302.353 419.846C302.702 419.846 302.877 419.846 302.877 420.195C302.877 420.545 302.702 423.516 302.702 423.516H303.575C303.575 423.516 303.401 420.37 303.401 420.195C303.401 419.846 303.575 419.846 303.925 419.846C304.274 419.846 307.069 420.545 307.069 420.545C307.069 420.545 306.895 419.846 306.72 419.496C306.545 418.972 306.72 418.972 306.895 418.797C307.069 418.622 310.039 416.001 310.039 416.001L309.515 415.826C309.165 415.651 309.34 415.477 309.34 415.302C309.34 415.127 309.864 413.379 309.864 413.379C309.864 413.379 308.467 413.729 308.292 413.729C308.117 413.729 307.943 413.729 307.943 413.554C307.943 413.379 307.593 412.68 307.593 412.68C307.593 412.68 306.021 414.428 305.846 414.603C305.497 414.952 305.148 414.603 305.322 414.253C305.322 413.904 306.196 410.234 306.196 410.234C306.196 410.234 305.322 410.758 304.973 410.933C304.624 411.107 304.449 411.107 304.449 410.758C304.274 410.408 303.226 408.486 303.226 408.311C303.226 408.311 302.178 410.408 302.003 410.758C301.829 411.107 301.654 411.107 301.479 410.933C301.13 410.758 300.256 410.234 300.256 410.234C300.256 410.234 301.13 413.904 301.13 414.253C301.13 414.603 300.955 414.778 300.606 414.603L298.859 412.68C298.859 412.68 298.684 413.205 298.51 413.379C298.51 413.554 298.335 413.729 298.16 413.554C297.811 413.554 296.413 413.205 296.413 413.205C296.413 413.205 296.937 414.952 297.112 415.127C297.112 415.302 297.112 415.651 296.763 415.826ZM285.059 406.738H294.142V424.914H285.059V406.738Z" fill="#FF0000"/>
<path d="M323.586 461.234C322.887 462.807 321.489 463.331 320.616 463.331C319.568 463.331 316.423 463.156 316.423 454.942C316.423 454.942 316.423 438.34 316.423 437.291C316.423 431.874 312.231 427.504 301.4 427.504C289.696 427.504 289.522 433.272 289.522 434.67C289.347 436.243 290.22 437.99 293.19 437.99C295.81 437.99 296.509 435.019 296.858 433.971C297.208 432.747 297.382 429.252 302.099 429.252C306.117 429.252 308.562 432.747 308.737 437.816C308.737 438.689 308.737 439.214 308.737 439.738C308.737 440.087 308.737 440.262 308.737 440.612V440.787C308.388 442.534 307.514 443.408 305.942 444.107C303.846 445.156 297.732 446.029 297.033 446.204C294.587 446.729 287.775 448.476 287.949 455.642C288.124 462.632 295.112 465.079 300.003 464.904C304.719 464.729 307.514 462.807 308.737 461.758C309.436 461.234 309.436 461.234 309.96 461.933C310.659 462.632 312.93 464.904 318.345 464.904C323.935 464.904 324.634 462.283 324.983 461.409C325.158 460.884 323.935 460.36 323.586 461.234ZM301.75 463.156C296.858 463.156 295.636 459.137 295.636 457.04C295.636 455.117 296.684 451.098 301.575 448.301C301.575 448.301 303.846 446.903 308.213 445.156C308.388 445.156 308.562 445.156 308.562 445.156C308.562 445.156 308.737 445.33 308.737 445.505V445.68V445.855V453.195C308.737 458.962 305.942 463.156 301.75 463.156ZM285.678 462.982C284.98 462.807 280.613 463.331 280.613 450.049C280.613 436.767 280.613 408.28 280.613 408.28C280.613 407.756 280.613 406.358 279.04 406.358C277.468 406.358 266.987 406.882 266.288 407.057C265.589 407.057 265.065 407.931 266.288 407.931C267.511 408.106 273.101 408.455 273.101 417.718C273.101 422.262 273.101 426.805 273.101 430.126C273.101 430.301 273.101 430.475 273.101 430.475C273.101 430.825 273.101 431 272.926 431.174C272.926 431.174 272.926 431.174 272.926 431.349C272.752 431.524 272.577 431.349 272.053 431C271.179 430.301 267.162 427.854 262.096 427.854C253.885 427.854 243.754 433.796 243.754 446.029C243.754 459.137 253.012 465.428 262.62 465.428C267.336 465.428 270.655 463.331 271.878 462.632C273.276 461.758 273.101 461.933 273.276 463.156C273.45 464.03 273.276 465.778 275.721 465.603C278.342 465.254 284.63 464.555 285.853 464.38C287.076 463.855 286.727 463.156 285.678 462.982ZM264.017 463.506C256.331 463.506 252.313 454.418 252.313 445.68C252.313 436.068 257.729 429.602 263.493 429.951C271.005 430.475 272.926 436.417 273.101 447.078C273.101 447.777 273.101 448.476 273.101 449.35C272.926 459.836 268.559 463.506 264.017 463.506ZM243.579 461.234C242.88 462.807 241.483 463.331 240.609 463.331C239.561 463.331 236.417 463.156 236.417 454.942C236.417 454.942 236.417 438.34 236.417 437.291C236.417 431.874 232.224 427.504 221.394 427.504C209.69 427.504 209.515 433.272 209.515 434.67C209.34 436.243 210.214 437.99 213.183 437.99C215.804 437.99 216.502 435.019 216.852 433.971C217.201 432.747 217.376 429.252 222.092 429.252C226.11 429.252 228.73 432.747 228.73 437.99V438.165C228.73 438.34 228.73 438.515 228.73 438.515V439.039C228.73 439.214 228.73 439.563 228.73 439.738C228.556 442.359 227.857 443.233 225.761 444.282C223.665 445.33 217.551 446.204 216.852 446.379C214.406 446.903 207.593 448.651 207.768 455.816C207.943 462.807 214.93 465.254 219.821 465.079C224.538 464.904 227.333 462.982 228.556 461.933C229.255 461.409 229.255 461.409 229.779 462.108C230.477 462.807 232.748 465.079 238.164 465.079C243.754 465.079 244.452 462.457 244.802 461.584C245.151 460.884 244.103 460.36 243.579 461.234ZM221.918 463.156C217.026 463.156 215.804 459.137 215.804 457.04C215.804 455.117 216.852 451.098 221.743 448.301C221.743 448.301 224.014 446.903 228.381 445.156C228.556 445.156 228.73 445.156 228.73 445.156V445.33C228.73 445.505 228.73 445.68 228.73 446.029V445.855C228.73 445.855 228.73 445.855 228.73 446.029V453.37C228.73 458.962 225.935 463.156 221.918 463.156ZM205.148 462.982C203.75 462.632 201.305 461.059 201.305 453.37V439.388C201.305 436.068 201.654 427.504 188.552 427.504C181.74 427.504 177.897 431 177.547 431.174C177.023 431.699 176.674 431.874 176.499 431C176.324 430.301 175.975 429.252 175.8 428.553C175.626 428.029 175.276 427.504 174.053 427.679C172.831 427.854 165.144 429.077 163.747 429.427C162.524 429.776 162.873 430.301 163.747 430.475C164.62 430.65 168.813 431 168.813 438.165C168.813 445.33 168.813 453.195 168.813 453.195C168.813 461.933 167.066 462.632 165.494 463.156C163.398 463.681 164.446 464.38 165.319 464.38C165.319 464.38 180.866 464.38 181.216 464.38C182.264 464.38 182.788 463.331 180.692 462.982C178.595 462.632 176.674 461.409 176.674 454.593C176.674 453.894 176.674 446.379 176.674 444.981C176.674 441.311 175.8 430.126 185.932 429.951C193.094 429.776 193.793 435.718 193.793 439.563V454.418C193.793 460.535 192.046 462.457 189.95 462.807C188.028 463.156 188.378 464.03 189.426 464.03C189.775 464.03 205.672 464.03 205.672 464.03C206.545 464.38 207.419 463.506 205.148 462.982ZM162.699 461.234C162 462.807 160.603 463.331 159.729 463.331C158.681 463.331 155.537 463.156 155.537 454.942C155.537 454.942 155.537 438.34 155.537 437.291C155.537 431.874 151.344 427.504 140.514 427.504C128.81 427.504 128.635 433.272 128.635 434.67C128.46 436.243 129.334 437.99 132.303 437.99C134.924 437.99 135.622 435.019 135.972 433.971C136.321 432.747 136.496 429.252 141.212 429.252C145.23 429.252 147.676 432.747 147.85 437.816C147.85 438.689 147.85 439.214 147.85 439.738C147.85 440.087 147.85 440.437 147.676 440.612V440.787C147.326 442.534 146.453 443.408 144.881 444.107C142.784 445.156 136.67 446.029 135.972 446.204C133.526 446.729 126.713 448.476 126.888 455.642C127.063 462.632 134.05 465.079 138.941 464.904C143.658 464.729 146.453 462.807 147.676 461.758C148.374 461.234 148.374 461.234 148.899 461.933C149.597 462.632 151.868 464.904 157.283 464.904C162.873 464.904 163.572 462.283 163.922 461.409C164.271 460.884 163.048 460.36 162.699 461.234ZM140.863 463.156C135.972 463.156 134.749 459.137 134.749 457.04C134.749 454.942 135.797 451.098 140.688 448.301C140.688 448.301 142.959 446.903 147.326 445.156C147.501 445.156 147.676 445.156 147.676 445.156C147.676 445.156 147.85 445.33 147.85 445.505C147.85 445.505 147.85 445.68 147.85 445.855V446.029V453.37C147.85 458.962 145.055 463.156 140.863 463.156ZM124.093 447.952C122.346 453.544 119.027 462.632 106.974 462.982C94.3962 463.156 86.8846 454.593 86.5353 438.689C86.0112 421.737 93.348 408.805 104.703 408.455C117.455 408.28 121.997 423.485 122.171 425.757C122.346 427.504 124.617 427.33 124.617 425.582C124.617 424.708 123.569 409.678 123.22 407.931C122.87 406.183 121.473 406.882 121.123 407.581C120.949 408.106 121.298 407.057 120.599 408.63C119.9 410.203 117.979 409.329 117.28 409.154C115.184 408.28 111.166 406.183 104.703 406.358C89.8543 406.707 74.6565 417.718 75.0059 436.942C75.3553 455.642 90.3784 466.127 104.353 465.953C117.105 465.778 124.268 457.739 126.364 448.476C127.063 446.204 124.792 445.68 124.093 447.952Z" fill="black"/>
<path d="M202.91 99.4705C201.627 101.739 198.419 101.739 197.136 99.4705L172.665 56.2026C171.382 53.934 172.986 51.0984 175.552 51.0984L224.494 51.0984C227.06 51.0984 228.663 53.9341 227.38 56.2026L202.91 99.4705Z" fill="#778798"/>
<path d="M197.091 308.928C198.374 306.659 201.581 306.659 202.864 308.928L227.335 352.196C228.618 354.464 227.014 357.3 224.448 357.3L175.506 357.3C172.94 357.3 171.337 354.464 172.62 352.196L197.091 308.928Z" fill="#778798"/>
<path d="M274.571 132.174C272.093 132.852 269.825 130.537 270.489 128.007L283.156 79.7475C283.82 77.2173 286.918 76.3698 288.733 78.2221L323.34 113.55C325.154 115.402 324.324 118.565 321.845 119.243L274.571 132.174Z" fill="#778798"/>
<path d="M125.429 276.224C127.907 275.546 130.175 277.862 129.511 280.392L116.844 328.651C116.18 331.181 113.082 332.029 111.267 330.176L76.6602 294.848C74.8458 292.996 75.6759 289.833 78.1545 289.155L125.429 276.224Z" fill="#778798"/>
<path d="M302.643 207.175C300.421 205.866 300.421 202.591 302.643 201.282L345.028 176.301C347.25 174.991 350.028 176.628 350.028 179.248L350.028 229.209C350.028 231.829 347.25 233.466 345.028 232.156L302.643 207.175Z" fill="#778798"/>
<path d="M97.3568 201.223C99.579 202.533 99.579 205.807 97.3568 207.117L54.9718 232.097C52.7496 233.407 49.9719 231.77 49.9719 229.151L49.9719 179.189C49.9719 176.57 52.7496 174.932 54.9719 176.242L97.3568 201.223Z" fill="#778798"/>
<path d="M270.559 280.381C269.895 277.851 272.163 275.536 274.642 276.214L321.916 289.144C324.394 289.822 325.225 292.985 323.41 294.837L288.803 330.166C286.989 332.018 283.89 331.17 283.226 328.64L270.559 280.381Z" fill="#778798"/>
<path d="M129.456 128.017C130.121 130.548 127.853 132.863 125.374 132.185L78.0997 119.254C75.6212 118.576 74.791 115.413 76.6054 113.561L111.213 78.2329C113.027 76.3806 116.125 77.2281 116.789 79.7583L129.456 128.017Z" fill="#778798"/>
<path d="M158.336 121.996C162.086 118.167 167.174 116.016 172.478 116.016L227.496 116.016C232.8 116.016 237.887 118.167 241.638 121.996L280.542 161.71C284.292 165.539 286.4 170.732 286.4 176.146V232.311C286.4 237.726 284.292 242.919 280.542 246.747L241.638 286.462C237.887 290.29 232.8 292.442 227.496 292.442H172.478C167.174 292.442 162.086 290.29 158.336 286.462L119.432 246.747C115.681 242.919 113.574 237.726 113.574 232.311L113.574 176.146C113.574 170.732 115.681 165.539 119.432 161.71L158.336 121.996Z" fill="#FF0000"/>
<path d="M203.536 269.843L202.54 240.872C202.54 238.076 204.781 238.076 209.76 239.093L232.663 243.667L229.676 236.043C228.68 232.994 228.431 231.215 230.671 229.182L257.807 206.564L252.828 203.514C251.334 202.497 251.334 201.227 252.081 198.685L257.06 181.913L243.866 184.708C240.132 185.47 239.136 184.708 238.389 182.675L234.655 175.051L221.709 190.045C219.469 192.84 216.232 191.061 217.228 186.995L223.452 155.991L213.992 161.582C212.498 162.598 210.756 162.852 210.009 161.073L199.802 140.234L189.595 161.073C188.599 162.852 187.106 162.598 185.612 161.582L176.152 155.991L182.375 186.995C183.371 191.061 180.135 192.84 177.894 190.045L164.949 175.051L161.215 182.675C160.219 184.708 159.223 185.725 155.738 184.708L142.544 181.913L147.523 198.685C148.27 201.227 148.27 202.497 146.776 203.514L141.797 206.564L168.932 229.182C171.173 231.215 170.924 233.248 169.928 236.043L166.941 243.667L189.844 239.093C194.823 238.076 197.063 238.076 197.063 240.872L196.068 269.843H203.536Z" fill="white"/>
</svg>
