<svg id="Layer_1" data-name="Layer 1" xmlns="http://www.w3.org/2000/svg" viewBox="0 0 32.27 29"><defs><style>.cls-1{fill:#0369ac;}</style></defs><path class="cls-1" d="M683.34,372.65l-.14.1L676,381.09,668.39,385a2.42,2.42,0,0,0-1,3.23l2.58,4.9a2.44,2.44,0,0,0,3.27,1l.94-.48,2.09,4a1.88,1.88,0,0,0,.94.86,1.83,1.83,0,0,0,1.4-.14l1.22-.62a1.83,1.83,0,0,0,.9-1.06,1.76,1.76,0,0,0-.17-1.28l-2.09-4,2.37-1.21,11-1.1a.69.69,0,0,0,.62-.76.45.45,0,0,0-.07-.24l-4-7.65-4-7.65a.71.71,0,0,0-.94-.31C683.41,372.61,683.37,372.61,683.34,372.65Zm7.91-2.93a.44.44,0,0,0-.21.24l-3.35,5.58a.69.69,0,0,0,.25,1,.66.66,0,0,0,.94-.25l3.34-5.58a.7.7,0,0,0-.21-1A.68.68,0,0,0,691.25,369.72Zm-7.63,4.72,3.55,6.75,3.55,6.72-9.68,1-3.73-7.09ZM669,386.22l4-2.07,3.55,6.72-4,2.07a1,1,0,0,1-1.39-.45l-2.58-4.89A1,1,0,0,1,669,386.22Zm5.26-2.69,1.85-1,3.55,6.72-1.85,1ZM689.85,379a.65.65,0,0,0-.24.93.67.67,0,0,0,.94.24l4.94-2.55a.69.69,0,0,0,.32-.93.7.7,0,0,0-.94-.31l-5,2.55C689.89,379,689.89,379,689.85,379Zm1.95,3.65a.69.69,0,0,0-.28.93.66.66,0,0,0,.56.34l6.55.52a.68.68,0,0,0,.73-.65.67.67,0,0,0-.63-.73l-6.51-.48A.58.58,0,0,0,691.8,382.64Zm-16.44,10.44,1.85-1,2.09,4a.53.53,0,0,1,.07.28s0,.1-.21.21l-1.22.62c-.18.1-.24.07-.28,0a.62.62,0,0,1-.17-.2Z" transform="translate(-667.09 -369.6)"/></svg>