<svg id="Layer_1" data-name="Layer 1" xmlns="http://www.w3.org/2000/svg" viewBox="0 0 33.58 30.65"><defs><style>.cls-1{fill:#367a76;}</style></defs><path class="cls-1" d="M694.2,382.78a.68.68,0,1,0-.6,1.22c3.13,1.52,4.95,3.76,4.95,5.89,0,4.46-7,8.12-15.47,8.12s-15.48-3.66-15.48-8.12c0-2.24,1.82-4.37,5-5.89a.7.7,0,0,0,.3-.91.69.69,0,0,0-.91-.31c-3.64,1.83-5.66,4.37-5.66,7.11,0,5.38,7.38,9.54,16.79,9.54s16.79-4.16,16.79-9.54C699.87,387.25,697.84,384.61,694.2,382.78Z" transform="translate(-666.29 -368.78)"/><path d="M678.53,384v4.57a2.51,2.51,0,0,0,2.52,2.54h4.05a2.51,2.51,0,0,0,2.53-2.54V384a2.54,2.54,0,0,0,2.32-2.54,6.64,6.64,0,0,0-3.74-6.09,4.25,4.25,0,0,0,.91-2.53,4,4,0,1,0-8.09,0,3.88,3.88,0,0,0,.91,2.53,6.75,6.75,0,0,0-3.74,6.09A2.54,2.54,0,0,0,678.53,384Zm4.55-14.21a3,3,0,1,1-3,3A3,3,0,0,1,683.08,369.79Zm-2.43,6.29a4.11,4.11,0,0,0,2.43.82,4.06,4.06,0,0,0,2.42-.82,5.89,5.89,0,0,1,3.54,5.38,1.55,1.55,0,0,1-1.51,1.53h-.31a.47.47,0,0,0-.5.5v5.08a1.56,1.56,0,0,1-1.52,1.52h-4.05a1.56,1.56,0,0,1-1.51-1.52v-5.08a.48.48,0,0,0-.51-.5h-.3a1.56,1.56,0,0,1-1.52-1.53A5.67,5.67,0,0,1,680.65,376.08Z" transform="translate(-666.29 -368.78)"/></svg>