<svg id="Layer_1" data-name="Layer 1" xmlns="http://www.w3.org/2000/svg" viewBox="0 0 40 56.16"><defs><style>.cls-1{fill:#367a76;}</style></defs><path class="cls-1" d="M665.39,362.2v46.11a2.39,2.39,0,0,0,2.39,2.4H703a2.4,2.4,0,0,0,2.4-2.4V362.2a2.4,2.4,0,0,0-2.4-2.4H691.3a6,6,0,0,0-11.82,0h-11.7A2.34,2.34,0,0,0,665.39,362.2Zm38.47,46.11a.85.85,0,0,1-.87.87H667.78a.84.84,0,0,1-.86-.87V369.59h37ZM685.39,356a4.44,4.44,0,0,1,4.38,3.72h-8.72A4.39,4.39,0,0,1,685.39,356Zm17.6,5.25a.85.85,0,0,1,.87.87v5.9H666.92V362.2a.84.84,0,0,1,.86-.87H703Z" transform="translate(-665.39 -354.55)"/><path class="cls-1" d="M680.49,380.47h18.18a.79.79,0,0,0,.79-.79.78.78,0,0,0-.79-.78H680.49a.79.79,0,0,0-.79.78A.83.83,0,0,0,680.49,380.47Z" transform="translate(-665.39 -354.55)"/><path class="cls-1" d="M680.49,390.55h18.18a.79.79,0,1,0,0-1.57H680.49a.79.79,0,0,0-.79.79A.82.82,0,0,0,680.49,390.55Z" transform="translate(-665.39 -354.55)"/><path class="cls-1" d="M680.49,400.63h18.18a.79.79,0,1,0,0-1.57H680.49a.8.8,0,0,0-.79.79A.82.82,0,0,0,680.49,400.63Z" transform="translate(-665.39 -354.55)"/><path class="cls-1" d="M672.85,380.92a.77.77,0,0,0,.49.33h.13a.62.62,0,0,0,.45-.16l4.92-3.84a.78.78,0,0,0,.29-1,.76.76,0,0,0-1-.29.8.8,0,0,0-.16.13l-4.26,3.35-.74-1.08a.8.8,0,0,0-1.08-.21.79.79,0,0,0-.2,1.08Z" transform="translate(-665.39 -354.55)"/><path class="cls-1" d="M672.85,390.88a.77.77,0,0,0,.49.33h.13a.62.62,0,0,0,.45-.16l4.92-3.84a.79.79,0,0,0,.16-1.08.78.78,0,0,0-1.07-.16,0,0,0,0,0,0,0l-4.26,3.34-.74-1.07a.77.77,0,0,0-1.37.7s.09.13.13.17Z" transform="translate(-665.39 -354.55)"/><path class="cls-1" d="M672.85,400.84a.77.77,0,0,0,.49.33h.13a.62.62,0,0,0,.45-.16l4.88-3.85a.77.77,0,0,0,.16-1.07.79.79,0,0,0-1.07-.17s0,0,0,.05l-4.26,3.3-.74-1.07a.78.78,0,0,0-1.29.86Z" transform="translate(-665.39 -354.55)"/></svg>