<svg id="Layer_1" data-name="Layer 1" xmlns="http://www.w3.org/2000/svg" viewBox="0 0 40 41.88"><defs><style>.cls-1{fill:#367a76;}</style></defs><path class="cls-1" d="M682.51,363.36l-19,14.29a1,1,0,0,0-.38.76v25.72a1,1,0,0,0,.95.95h38.09a1,1,0,0,0,1-.95V378.41a1,1,0,0,0-.38-.76l-19.05-14.29A1.11,1.11,0,0,0,682.51,363.36Zm.57,2,18.09,13.58v24.28H665V378.94Z" transform="translate(-663.08 -363.2)"/><path d="M678.2,390.44v4.9a2.71,2.71,0,0,0,2.71,2.71h4.33a2.71,2.71,0,0,0,2.72-2.71v-4.9a2.71,2.71,0,0,0,2.52-2.72,7.42,7.42,0,0,0-4-6.57,4.45,4.45,0,0,0,.95-2.67,4.33,4.33,0,1,0-8.66,0,4.6,4.6,0,0,0,1,2.72,7.31,7.31,0,0,0-4,6.57A2.66,2.66,0,0,0,678.2,390.44Zm4.9-15.24a3.29,3.29,0,1,1-3.28,3.28A3.29,3.29,0,0,1,683.1,375.2ZM680.53,382a4.27,4.27,0,0,0,5.14,0,6.25,6.25,0,0,1,3.76,5.76,1.6,1.6,0,0,1-1.61,1.62h-.34a.53.53,0,0,0-.52.52v5.43a1.61,1.61,0,0,1-1.62,1.62H681a1.6,1.6,0,0,1-1.62-1.62v-5.43a.53.53,0,0,0-.53-.52h-.33a1.6,1.6,0,0,1-1.62-1.62A5.92,5.92,0,0,1,680.53,382Z" transform="translate(-663.08 -363.2)"/></svg>