<svg id="Layer_1" data-name="Layer 1" xmlns="http://www.w3.org/2000/svg" viewBox="0 0 32.74 45.97"><defs><style>.cls-1{fill:#d81a21;}</style></defs><path class="cls-1" d="M666.71,367.53v37.75a2,2,0,0,0,2,2h28.82a2,2,0,0,0,2-2V367.53a2,2,0,0,0-2-2h-9.58a4.87,4.87,0,0,0-9.67,0h-9.57A1.91,1.91,0,0,0,666.71,367.53Zm31.49,37.75a.7.7,0,0,1-.71.71H668.67a.69.69,0,0,1-.71-.71v-31.7h30.27Zm-15.12-42.79a3.62,3.62,0,0,1,3.58,3h-7.13A3.59,3.59,0,0,1,683.08,362.49Zm14.41,4.29a.7.7,0,0,1,.71.72v4.83H668v-4.8a.69.69,0,0,1,.71-.71h28.82Z" transform="translate(-666.71 -361.27)"/><path class="cls-1" d="M679.39,382.21h14.88a.65.65,0,0,0,.65-.64.66.66,0,0,0-.65-.65H679.39a.64.64,0,0,0-.64.65A.66.66,0,0,0,679.39,382.21Z" transform="translate(-666.71 -361.27)"/><path class="cls-1" d="M679.39,390.46h14.88a.64.64,0,1,0,0-1.28H679.39a.64.64,0,0,0-.64.64A.66.66,0,0,0,679.39,390.46Z" transform="translate(-666.71 -361.27)"/><path class="cls-1" d="M679.39,398.71h14.88a.64.64,0,1,0,0-1.28H679.39a.64.64,0,0,0-.64.64A.66.66,0,0,0,679.39,398.71Z" transform="translate(-666.71 -361.27)"/><path class="cls-1" d="M673.13,382.58a.64.64,0,0,0,.41.27h.1a.5.5,0,0,0,.37-.13l4-3.15a.63.63,0,0,0,.23-.85.61.61,0,0,0-.84-.23.56.56,0,0,0-.14.1l-3.48,2.74-.61-.88a.63.63,0,0,0-1.05.71Z" transform="translate(-666.71 -361.27)"/><path class="cls-1" d="M673.13,390.73a.64.64,0,0,0,.41.27h.1a.5.5,0,0,0,.37-.13l4-3.15a.63.63,0,0,0-.75-1,0,0,0,0,0,0,0l-3.48,2.74-.61-.88a.63.63,0,0,0-1.12.58l.1.13Z" transform="translate(-666.71 -361.27)"/><path class="cls-1" d="M673.13,398.88a.64.64,0,0,0,.41.27h.1A.5.5,0,0,0,674,399l4-3.15a.63.63,0,1,0-.74-1,0,0,0,0,0,0,0l-3.49,2.71-.61-.88a.68.68,0,0,0-.88-.17.7.7,0,0,0-.17.88Z" transform="translate(-666.71 -361.27)"/></svg>