<svg id="Layer_1" data-name="Layer 1" xmlns="http://www.w3.org/2000/svg" viewBox="0 0 26.78 51.5"><defs><style>.cls-1{fill:#fff;}.cls-2{fill:#010101;}.cls-3{fill:#b8e4f2;}.cls-4{fill:none;stroke:#010101;stroke-linecap:round;stroke-linejoin:round;stroke-width:2px;}</style></defs><path class="cls-1" d="M8.51,55.9a5.62,5.62,0,0,1-3-7.34L17.43,20.22a2.15,2.15,0,0,1,2.07-3.75l9.48,4a2.16,2.16,0,0,1-1.23,4.11L15.84,52.9A5.6,5.6,0,0,1,8.51,55.9Z" transform="translate(-4.53 -5.39)"/><path class="cls-2" d="M28.77,21a1.61,1.61,0,0,1-1.25,3l-.09,0L15.33,52.69A5,5,0,1,1,6,48.78L18.14,20l-.09,0a1.6,1.6,0,0,1,1.24-3Zm.43-1-9.48-4a2.71,2.71,0,0,0-3,4.43L5,48.35a6.15,6.15,0,1,0,11.34,4.76l11.75-28a2.71,2.71,0,0,0,1.1-5.21Z" transform="translate(-4.53 -5.39)"/><path class="cls-3" d="M9,54.86A4.5,4.5,0,0,1,6.58,49l10-23.76,8.28,3.48-10,23.76A4.5,4.5,0,0,1,9,54.86Z" transform="translate(-4.53 -5.39)"/><path class="cls-1" d="M24.12,29,14.35,52.24a3.94,3.94,0,1,1-7.26-3.05l9.77-23.25Zm1.45-.59-9.3-3.91L6.07,48.76a5,5,0,1,0,9.3,3.91Z" transform="translate(-4.53 -5.39)"/><path class="cls-4" d="M26.7,12.64,13.53,44" transform="translate(-4.53 -5.39)"/><path class="cls-1" d="M10.78,50.56a2.7,2.7,0,0,1-1-3.62c.56-1.33,3.16-3.19,3.46-3.4a.55.55,0,0,1,.53-.06.53.53,0,0,1,.33.42c.06.36.55,3.53,0,4.85C13.45,50.25,12,51.06,10.78,50.56Z" transform="translate(-4.53 -5.39)"/><path class="cls-2" d="M13.54,44s.54,3.33,0,4.55S11.9,50.43,11,50s-1.23-1.67-.72-2.89S13.54,44,13.54,44ZM14,43a1.09,1.09,0,0,0-1.06.12s-.74.52-1.52,1.18a7.47,7.47,0,0,0-2.13,2.45A4,4,0,0,0,9,49.18a2.71,2.71,0,0,0,1.54,1.89A2.77,2.77,0,0,0,13,50.85,4,4,0,0,0,14.59,49a7.68,7.68,0,0,0,.26-3.23c-.08-1-.22-1.88-.22-1.92A1.09,1.09,0,0,0,14,43Z" transform="translate(-4.53 -5.39)"/><path class="cls-1" d="M26.49,13.17a.58.58,0,0,1-.34-.42c0-.36-.55-3.53,0-4.85.63-1.5,2.11-2.31,3.3-1.81a2.7,2.7,0,0,1,1,3.62C29.92,11,27.31,12.9,27,13.11A.56.56,0,0,1,26.49,13.17Z" transform="translate(-4.53 -5.39)"/><path class="cls-2" d="M29.24,6.6A2.17,2.17,0,0,1,30,9.5c-.51,1.21-3.27,3.16-3.27,3.16s-.54-3.33,0-4.55A2.16,2.16,0,0,1,29.24,6.6Zm.43-1a2.68,2.68,0,0,0-2.42.22,4,4,0,0,0-1.6,1.88,7.59,7.59,0,0,0-.26,3.24c.07,1,.21,1.88.22,1.91a1.1,1.1,0,0,0,1.73.73s.74-.52,1.52-1.18A7.7,7.7,0,0,0,31,9.93a3.9,3.9,0,0,0,.22-2.46A2.71,2.71,0,0,0,29.67,5.58Z" transform="translate(-4.53 -5.39)"/></svg>