<svg id="Layer_1" data-name="Layer 1" xmlns="http://www.w3.org/2000/svg" viewBox="0 0 42.73 53.76"><defs><style>.cls-1,.cls-5{fill:#fff;}.cls-2{stroke:#fff;}.cls-2,.cls-4,.cls-5{stroke-miterlimit:10;}.cls-3{fill:#b8e4f2;}.cls-4{fill:none;}.cls-4,.cls-5{stroke:#000;stroke-linecap:round;}</style></defs><rect class="cls-1" x="16.19" y="29.4" width="33.7" height="23.64" transform="translate(-29.35 41.46) rotate(-67.67)"/><path class="cls-2" d="M49.34,21.37,46,20l-4.29-1.79-5.75-2.4a7.37,7.37,0,0,0-5.21-.25,5.69,5.69,0,0,0-3.52,3.16l-2,4.81-.55,0a.78.78,0,0,0-.68.44l-.42,1a.77.77,0,0,0,0,.4.79.79,0,0,0,.19.39l.34.38-.9,2.15-.51,0a.68.68,0,0,0-.4.13.61.61,0,0,0-.27.3l-.43,1a.92.92,0,0,0,0,.41.78.78,0,0,0,.2.38l.33.38L12.62,53.42a5.69,5.69,0,0,0,.23,4.72,7.39,7.39,0,0,0,3.85,3.53l13.48,5.62a8.21,8.21,0,0,0,3.36.63,6.73,6.73,0,0,0,3.05-.84A5.42,5.42,0,0,0,39,64.44l.1-.26,1.93-4.61,1.36-3.27L53.54,29.67A5.73,5.73,0,0,0,53.31,25,8,8,0,0,0,49.34,21.37Zm-13.11,42a3.62,3.62,0,0,1-2.08,1.77,4.49,4.49,0,0,1-3-.16l-4.29-1.79-9.19-3.83a4.36,4.36,0,0,1-2.22-2,3.51,3.51,0,0,1-.2-2.73l.29-.72L26,58.2l10.64,4.44ZM16.32,52,28.77,22.17l9.5,4,4.35,1.81,7.19,3L39.73,55.11l-1.36,3.28-1,2.35-7.19-3L25.9,56l-9.56-4ZM43.39,26.1l-4.3-1.79-9.61-4,.36-.69a3.38,3.38,0,0,1,2.07-1.72,4.3,4.3,0,0,1,3,.16l5.75,2.4L45,22.26l3.45,1.44a4.36,4.36,0,0,1,2.21,2,3.46,3.46,0,0,1,.23,2.69l-.24.74Z" transform="translate(-11.71 -14.66)"/><path class="cls-3" d="M27.49,53.82a2.6,2.6,0,0,1-1.34-3.42l5.92-13.64,4.75,2.07L30.9,52.47A2.6,2.6,0,0,1,27.49,53.82Z" transform="translate(-11.71 -14.66)"/><path class="cls-4" d="M40,33.18,33.81,30.5a.91.91,0,0,0-1.15.53.92.92,0,0,0,.41,1.2l1,.44L26.23,50.92a2.31,2.31,0,1,0,4.22,1.82l7.87-18.25.9.39a.92.92,0,0,0,1.16-.53A.86.86,0,0,0,40,33.18Z" transform="translate(-11.71 -14.66)"/><path class="cls-4" d="M39.5,28.87c-.15.36-1.38.9-1.38.9a4.58,4.58,0,0,1-.3-1.62c.15-.35.62-.46,1.1-.25S39.65,28.52,39.5,28.87Z" transform="translate(-11.71 -14.66)"/><path class="cls-5" d="M29.7,50.28a7.85,7.85,0,0,0,0-2.31,8,8,0,0,0-1.65,1.62,1,1,0,0,0,.39,1.3A1,1,0,0,0,29.7,50.28Z" transform="translate(-11.71 -14.66)"/><path class="cls-4" d="M38,29.76,29.9,48" transform="translate(-11.71 -14.66)"/></svg>